<mxfile host="app.diagrams.net" modified="2023-03-06T08:11:38.521Z" agent="5.0 (Windows NT 10.0; Win64; x64) AppleWebKit/537.36 (KHTML, like Gecko) Chrome/110.0.0.0 Safari/537.36" etag="cUq1YpxnLMJKCXo5Yosv" version="20.8.23" type="github">
  <diagram name="Page-1" id="jb7mRahCzlHCsOeQkt8h">
    <mxGraphModel dx="925" dy="508" grid="1" gridSize="10" guides="1" tooltips="1" connect="1" arrows="1" fold="1" page="1" pageScale="1" pageWidth="850" pageHeight="1100" math="0" shadow="0">
      <root>
        <mxCell id="0" />
        <mxCell id="1" parent="0" />
        <mxCell id="_6TaDpirpwY7llcwYww7-1" value="tt" style="rounded=0;whiteSpace=wrap;html=1;" parent="1" vertex="1">
          <mxGeometry x="175" y="100" width="500" height="650" as="geometry" />
        </mxCell>
        <mxCell id="_6TaDpirpwY7llcwYww7-2" value="Player" style="shape=umlActor;verticalLabelPosition=bottom;verticalAlign=top;html=1;outlineConnect=0;" parent="1" vertex="1">
          <mxGeometry x="70" y="380" width="30" height="60" as="geometry" />
        </mxCell>
        <mxCell id="_6TaDpirpwY7llcwYww7-3" value="Manager" style="shape=umlActor;verticalLabelPosition=bottom;verticalAlign=top;html=1;outlineConnect=0;" parent="1" vertex="1">
          <mxGeometry x="740" y="220" width="30" height="60" as="geometry" />
        </mxCell>
        <mxCell id="_6TaDpirpwY7llcwYww7-4" value="Board Member&lt;br&gt;" style="shape=umlActor;verticalLabelPosition=bottom;verticalAlign=top;html=1;outlineConnect=0;" parent="1" vertex="1">
          <mxGeometry x="750" y="530" width="30" height="60" as="geometry" />
        </mxCell>
        <mxCell id="_6TaDpirpwY7llcwYww7-7" value="Sign in/Sign up" style="ellipse;whiteSpace=wrap;html=1;" parent="1" vertex="1">
          <mxGeometry x="355" y="140" width="140" height="70" as="geometry" />
        </mxCell>
        <mxCell id="_6TaDpirpwY7llcwYww7-8" value="" style="endArrow=none;html=1;rounded=0;exitX=1;exitY=0.3333333333333333;exitDx=0;exitDy=0;exitPerimeter=0;entryX=0;entryY=1;entryDx=0;entryDy=0;" parent="1" source="_6TaDpirpwY7llcwYww7-2" target="_6TaDpirpwY7llcwYww7-7" edge="1">
          <mxGeometry width="50" height="50" relative="1" as="geometry">
            <mxPoint x="310" y="490" as="sourcePoint" />
            <mxPoint x="360" y="440" as="targetPoint" />
          </mxGeometry>
        </mxCell>
        <mxCell id="_6TaDpirpwY7llcwYww7-10" value="" style="endArrow=none;html=1;rounded=0;entryX=0;entryY=0.3333333333333333;entryDx=0;entryDy=0;entryPerimeter=0;exitX=1;exitY=0.5;exitDx=0;exitDy=0;" parent="1" source="_6TaDpirpwY7llcwYww7-7" target="_6TaDpirpwY7llcwYww7-3" edge="1">
          <mxGeometry width="50" height="50" relative="1" as="geometry">
            <mxPoint x="310" y="490" as="sourcePoint" />
            <mxPoint x="360" y="440" as="targetPoint" />
          </mxGeometry>
        </mxCell>
        <mxCell id="_6TaDpirpwY7llcwYww7-11" value="" style="endArrow=none;html=1;rounded=0;entryX=0;entryY=0.3333333333333333;entryDx=0;entryDy=0;entryPerimeter=0;exitX=1;exitY=1;exitDx=0;exitDy=0;" parent="1" source="_6TaDpirpwY7llcwYww7-7" target="_6TaDpirpwY7llcwYww7-4" edge="1">
          <mxGeometry width="50" height="50" relative="1" as="geometry">
            <mxPoint x="505" y="185" as="sourcePoint" />
            <mxPoint x="750" y="250" as="targetPoint" />
          </mxGeometry>
        </mxCell>
        <mxCell id="_6TaDpirpwY7llcwYww7-12" value="View Player Stats" style="ellipse;whiteSpace=wrap;html=1;" parent="1" vertex="1">
          <mxGeometry x="355" y="220" width="140" height="70" as="geometry" />
        </mxCell>
        <mxCell id="_6TaDpirpwY7llcwYww7-13" value="" style="endArrow=none;html=1;rounded=0;exitX=1;exitY=0.3333333333333333;exitDx=0;exitDy=0;exitPerimeter=0;entryX=0;entryY=0.5;entryDx=0;entryDy=0;" parent="1" source="_6TaDpirpwY7llcwYww7-2" target="_6TaDpirpwY7llcwYww7-12" edge="1">
          <mxGeometry width="50" height="50" relative="1" as="geometry">
            <mxPoint x="110" y="410" as="sourcePoint" />
            <mxPoint x="386" y="210" as="targetPoint" />
          </mxGeometry>
        </mxCell>
        <mxCell id="_6TaDpirpwY7llcwYww7-14" value="" style="endArrow=none;html=1;rounded=0;exitX=1;exitY=1;exitDx=0;exitDy=0;" parent="1" source="_6TaDpirpwY7llcwYww7-12" edge="1">
          <mxGeometry width="50" height="50" relative="1" as="geometry">
            <mxPoint x="484" y="210" as="sourcePoint" />
            <mxPoint x="750" y="550" as="targetPoint" />
          </mxGeometry>
        </mxCell>
        <mxCell id="_6TaDpirpwY7llcwYww7-15" value="" style="endArrow=none;html=1;rounded=0;exitX=1;exitY=0.5;exitDx=0;exitDy=0;" parent="1" source="_6TaDpirpwY7llcwYww7-12" edge="1">
          <mxGeometry width="50" height="50" relative="1" as="geometry">
            <mxPoint x="505" y="185" as="sourcePoint" />
            <mxPoint x="740" y="240" as="targetPoint" />
          </mxGeometry>
        </mxCell>
        <mxCell id="_6TaDpirpwY7llcwYww7-16" value="Make MatchUps&amp;nbsp;" style="ellipse;whiteSpace=wrap;html=1;" parent="1" vertex="1">
          <mxGeometry x="355" y="300" width="140" height="70" as="geometry" />
        </mxCell>
        <mxCell id="_6TaDpirpwY7llcwYww7-17" value="" style="endArrow=none;html=1;rounded=0;exitX=1;exitY=1;exitDx=0;exitDy=0;" parent="1" source="_6TaDpirpwY7llcwYww7-16" edge="1">
          <mxGeometry width="50" height="50" relative="1" as="geometry">
            <mxPoint x="484" y="290" as="sourcePoint" />
            <mxPoint x="750" y="550" as="targetPoint" />
          </mxGeometry>
        </mxCell>
        <mxCell id="_6TaDpirpwY7llcwYww7-18" value="Present Awards" style="ellipse;whiteSpace=wrap;html=1;" parent="1" vertex="1">
          <mxGeometry x="355" y="380" width="140" height="70" as="geometry" />
        </mxCell>
        <mxCell id="_6TaDpirpwY7llcwYww7-19" value="" style="endArrow=none;html=1;rounded=0;exitX=1;exitY=1;exitDx=0;exitDy=0;" parent="1" source="_6TaDpirpwY7llcwYww7-18" edge="1">
          <mxGeometry width="50" height="50" relative="1" as="geometry">
            <mxPoint x="484" y="370" as="sourcePoint" />
            <mxPoint x="750" y="550" as="targetPoint" />
          </mxGeometry>
        </mxCell>
        <mxCell id="_6TaDpirpwY7llcwYww7-20" value="Team Formation" style="ellipse;whiteSpace=wrap;html=1;" parent="1" vertex="1">
          <mxGeometry x="355" y="460" width="140" height="70" as="geometry" />
        </mxCell>
        <mxCell id="_6TaDpirpwY7llcwYww7-21" value="" style="endArrow=none;html=1;rounded=0;entryX=0;entryY=0.3333333333333333;entryDx=0;entryDy=0;entryPerimeter=0;exitX=1;exitY=0.5;exitDx=0;exitDy=0;" parent="1" source="_6TaDpirpwY7llcwYww7-20" target="_6TaDpirpwY7llcwYww7-3" edge="1">
          <mxGeometry width="50" height="50" relative="1" as="geometry">
            <mxPoint x="505" y="265" as="sourcePoint" />
            <mxPoint x="750" y="250" as="targetPoint" />
          </mxGeometry>
        </mxCell>
        <mxCell id="_6TaDpirpwY7llcwYww7-22" value="Assign Team" style="ellipse;whiteSpace=wrap;html=1;" parent="1" vertex="1">
          <mxGeometry x="360" y="540" width="140" height="70" as="geometry" />
        </mxCell>
        <mxCell id="_6TaDpirpwY7llcwYww7-23" value="" style="endArrow=none;html=1;rounded=0;exitX=1;exitY=0.5;exitDx=0;exitDy=0;" parent="1" source="_6TaDpirpwY7llcwYww7-22" edge="1">
          <mxGeometry width="50" height="50" relative="1" as="geometry">
            <mxPoint x="505" y="505" as="sourcePoint" />
            <mxPoint x="740" y="240" as="targetPoint" />
          </mxGeometry>
        </mxCell>
        <mxCell id="_6TaDpirpwY7llcwYww7-24" value="Player Transfers" style="ellipse;whiteSpace=wrap;html=1;" parent="1" vertex="1">
          <mxGeometry x="355" y="620" width="140" height="70" as="geometry" />
        </mxCell>
        <mxCell id="_6TaDpirpwY7llcwYww7-25" value="" style="endArrow=none;html=1;rounded=0;exitX=1;exitY=1;exitDx=0;exitDy=0;" parent="1" source="_6TaDpirpwY7llcwYww7-24" edge="1">
          <mxGeometry width="50" height="50" relative="1" as="geometry">
            <mxPoint x="485" y="450" as="sourcePoint" />
            <mxPoint x="750" y="550" as="targetPoint" />
          </mxGeometry>
        </mxCell>
        <mxCell id="_6TaDpirpwY7llcwYww7-26" value="" style="endArrow=none;html=1;rounded=0;exitX=1;exitY=0.5;exitDx=0;exitDy=0;" parent="1" source="_6TaDpirpwY7llcwYww7-24" edge="1">
          <mxGeometry width="50" height="50" relative="1" as="geometry">
            <mxPoint x="510" y="585" as="sourcePoint" />
            <mxPoint x="740" y="240" as="targetPoint" />
          </mxGeometry>
        </mxCell>
        <mxCell id="7QmNIYNYqyGOwHy-lG8Q-1" value="FootyField" style="text;html=1;strokeColor=none;fillColor=none;align=center;verticalAlign=middle;whiteSpace=wrap;rounded=0;" vertex="1" parent="1">
          <mxGeometry x="395" y="100" width="60" height="30" as="geometry" />
        </mxCell>
        <mxCell id="7QmNIYNYqyGOwHy-lG8Q-2" value="Forgot Password" style="ellipse;whiteSpace=wrap;html=1;" vertex="1" parent="1">
          <mxGeometry x="560" y="110" width="95" height="30" as="geometry" />
        </mxCell>
        <mxCell id="7QmNIYNYqyGOwHy-lG8Q-3" value="&amp;lt;&amp;lt;Extends&amp;gt;&amp;gt;" style="endArrow=block;endSize=16;endFill=0;html=1;rounded=0;exitX=0;exitY=0.5;exitDx=0;exitDy=0;dashed=1;" edge="1" parent="1" source="7QmNIYNYqyGOwHy-lG8Q-2" target="_6TaDpirpwY7llcwYww7-7">
          <mxGeometry width="160" relative="1" as="geometry">
            <mxPoint x="490" y="160" as="sourcePoint" />
            <mxPoint x="540" y="220" as="targetPoint" />
          </mxGeometry>
        </mxCell>
        <mxCell id="7QmNIYNYqyGOwHy-lG8Q-5" value="Use Case" style="ellipse;whiteSpace=wrap;html=1;" vertex="1" parent="1">
          <mxGeometry x="250" y="320" width="90" height="30" as="geometry" />
        </mxCell>
        <mxCell id="7QmNIYNYqyGOwHy-lG8Q-6" value="&amp;lt;&amp;lt;Includes&amp;gt;&amp;gt;" style="endArrow=block;endSize=16;endFill=0;html=1;rounded=0;exitX=0;exitY=1;exitDx=0;exitDy=0;entryX=1;entryY=0;entryDx=0;entryDy=0;dashed=1;" edge="1" parent="1" source="_6TaDpirpwY7llcwYww7-12" target="7QmNIYNYqyGOwHy-lG8Q-5">
          <mxGeometry width="160" relative="1" as="geometry">
            <mxPoint x="410" y="310" as="sourcePoint" />
            <mxPoint x="570" y="310" as="targetPoint" />
          </mxGeometry>
        </mxCell>
      </root>
    </mxGraphModel>
  </diagram>
</mxfile>
